<svg xmlns="http://www.w3.org/2000/svg" version="1.1">
<g transform="scale(4)">
<line x1="16.000000" y1="39.000000" x2="86.000000" y2="39.000000" stroke="rgb(255, 255, 255)" stroke-width="1.5" stroke-linecap="square" />
<line x1="16.000000" y1="42.000000" x2="86.000000" y2="42.000000" stroke="rgb(255, 255, 255)" stroke-width="1.5" stroke-linecap="square" />
<circle cx="54.385983" cy="41.353992" r="0.3" fill="rgb(255,165,0)" />
<circle cx="68.384109" cy="41.403385" r="0.3" fill="rgb(255,165,0)" />
<circle cx="55.336338" cy="41.320847" r="0.3" fill="rgb(255,165,0)" />
<circle cx="57.233215" cy="40.840603" r="0.3" fill="rgb(255,165,0)" />
<circle cx="50.762417" cy="41.246052" r="0.3" fill="rgb(255,165,0)" />
<circle cx="12.847664" cy="40.687576" r="0.3" fill="rgb(255,165,0)" />
<circle cx="47.240028" cy="41.301716" r="0.3" fill="rgb(255,165,0)" />
<circle cx="67.403900" cy="41.278217" r="0.3" fill="rgb(255,165,0)" />
<circle cx="53.467892" cy="39.668194" r="0.3" fill="rgb(255,165,0)" />
<circle cx="69.287338" cy="39.693962" r="0.3" fill="rgb(255,165,0)" />
<circle cx="12.676944" cy="40.917152" r="0.3" fill="rgb(255,165,0)" />
<circle cx="45.311783" cy="40.824478" r="0.3" fill="rgb(255,165,0)" />
<circle cx="65.077293" cy="39.530426" r="0.3" fill="rgb(255,165,0)" />
<circle cx="70.040611" cy="40.484779" r="0.3" fill="rgb(255,165,0)" />
<circle cx="66.315094" cy="41.652500" r="0.3" fill="rgb(255,165,0)" />
<circle cx="53.427841" cy="41.287231" r="0.3" fill="rgb(255,165,0)" />
<circle cx="40.749569" cy="40.573387" r="0.3" fill="rgb(255,165,0)" />
<circle cx="54.581841" cy="39.611828" r="0.3" fill="rgb(255,165,0)" />
<circle cx="71.413986" cy="41.164879" r="0.3" fill="rgb(255,165,0)" />
<circle cx="40.550591" cy="39.559265" r="0.3" fill="rgb(255,165,0)" />
<circle cx="43.483334" cy="40.074471" r="0.3" fill="rgb(255,165,0)" />
<circle cx="63.574459" cy="40.218269" r="0.3" fill="rgb(255,165,0)" />
<circle cx="52.293324" cy="39.546928" r="0.3" fill="rgb(255,165,0)" />
<circle cx="44.569687" cy="41.357677" r="0.3" fill="rgb(255,165,0)" />
<circle cx="55.757805" cy="39.589600" r="0.3" fill="rgb(255,165,0)" />
<circle cx="46.211216" cy="41.252007" r="0.3" fill="rgb(255,165,0)" />
<circle cx="59.054951" cy="41.218834" r="0.3" fill="rgb(255,165,0)" />
<circle cx="60.560692" cy="39.843521" r="0.3" fill="rgb(255,165,0)" />
<circle cx="62.676338" cy="39.956436" r="0.3" fill="rgb(255,165,0)" />
<circle cx="73.277893" cy="41.313522" r="0.3" fill="rgb(255,165,0)" />
<circle cx="61.730038" cy="40.525749" r="0.3" fill="rgb(255,165,0)" />
<circle cx="48.471752" cy="40.052383" r="0.3" fill="rgb(255,165,0)" />
<circle cx="44.410034" cy="39.834446" r="0.3" fill="rgb(255,165,0)" />
<circle cx="47.815292" cy="39.458511" r="0.3" fill="rgb(255,165,0)" />
<circle cx="50.247112" cy="40.506573" r="0.3" fill="rgb(255,165,0)" />
<circle cx="73.005424" cy="40.183487" r="0.3" fill="rgb(255,165,0)" />
<circle cx="40.910870" cy="41.426117" r="0.3" fill="rgb(255,165,0)" />
<circle cx="74.153641" cy="40.659088" r="0.3" fill="rgb(255,165,0)" />
<circle cx="42.864964" cy="40.909184" r="0.3" fill="rgb(255,165,0)" />
<circle cx="49.420746" cy="41.368176" r="0.3" fill="rgb(255,165,0)" />
<circle cx="41.628426" cy="40.161621" r="0.3" fill="rgb(255,165,0)" />
<circle cx="58.026115" cy="41.185699" r="0.3" fill="rgb(255,165,0)" />
<circle cx="32.830700" cy="40.702618" r="0.3" fill="rgb(255,165,0)" />
<circle cx="70.986748" cy="40.367630" r="0.3" fill="rgb(255,165,0)" />
<circle cx="68.373001" cy="39.537811" r="0.3" fill="rgb(255,165,0)" />
<circle cx="56.330479" cy="41.277821" r="0.3" fill="rgb(255,165,0)" />
<circle cx="29.895430" cy="40.642094" r="0.3" fill="rgb(255,165,0)" />
<circle cx="72.043457" cy="40.096493" r="0.3" fill="rgb(255,165,0)" />
<circle cx="72.283760" cy="41.126881" r="0.3" fill="rgb(255,165,0)" />
<circle cx="48.340351" cy="41.175667" r="0.3" fill="rgb(255,165,0)" />
<circle cx="39.044243" cy="41.239182" r="0.3" fill="rgb(0, 255, 0)" />
<circle cx="89.373711" cy="40.875977" r="0.3" fill="rgb(0, 255, 0)" />
<circle cx="47.661106" cy="40.531605" r="0.3" fill="rgb(0, 255, 0)" />
<circle cx="64.727600" cy="40.288250" r="0.3" fill="rgb(0, 255, 0)" />
<circle cx="49.374393" cy="40.427490" r="0.3" fill="rgb(0, 255, 0)" />
<circle cx="42.689472" cy="39.801945" r="0.3" fill="rgb(0, 255, 0)" />
<circle cx="59.877060" cy="40.467770" r="0.3" fill="rgb(0, 255, 0)" />
<circle cx="56.638611" cy="40.191860" r="0.3" fill="rgb(0, 255, 0)" />
<circle cx="40.004375" cy="41.313988" r="0.3" fill="rgb(0, 255, 0)" />
<circle cx="38.125095" cy="41.037376" r="0.3" fill="rgb(0, 255, 0)" />
<circle cx="52.033379" cy="40.483246" r="0.3" fill="rgb(0, 255, 0)" />
<circle cx="71.600548" cy="39.452072" r="0.3" fill="rgb(0, 255, 0)" />
<circle cx="67.335854" cy="40.431118" r="0.3" fill="rgb(0, 255, 0)" />
<circle cx="50.224308" cy="39.573002" r="0.3" fill="rgb(0, 255, 0)" />
<circle cx="62.811508" cy="41.120426" r="0.3" fill="rgb(0, 255, 0)" />
<circle cx="45.588741" cy="39.885464" r="0.3" fill="rgb(0, 255, 0)" />
<circle cx="37.436344" cy="40.360081" r="0.3" fill="rgb(0, 255, 0)" />
<circle cx="59.027081" cy="40.151817" r="0.3" fill="rgb(0, 255, 0)" />
<circle cx="67.688812" cy="39.653408" r="0.3" fill="rgb(0, 255, 0)" />
<circle cx="54.253994" cy="40.475655" r="0.3" fill="rgb(0, 255, 0)" />
<circle cx="60.723495" cy="41.067577" r="0.3" fill="rgb(0, 255, 0)" />
<circle cx="89.229782" cy="40.887672" r="0.3" fill="rgb(0, 255, 0)" />
<circle cx="47.020542" cy="39.643532" r="0.3" fill="rgb(0, 255, 0)" />
<circle cx="66.088539" cy="40.085186" r="0.3" fill="rgb(0, 255, 0)" />
<circle cx="70.803192" cy="41.482681" r="0.3" fill="rgb(0, 255, 0)" />
<circle cx="42.145409" cy="41.300114" r="0.3" fill="rgb(0, 255, 0)" />
<circle cx="70.513924" cy="39.555775" r="0.3" fill="rgb(0, 255, 0)" />
<circle cx="66.492554" cy="40.831882" r="0.3" fill="rgb(0, 255, 0)" />
<circle cx="61.717464" cy="41.451733" r="0.3" fill="rgb(0, 255, 0)" />
<circle cx="89.122719" cy="40.436062" r="0.3" fill="rgb(0, 255, 0)" />
<circle cx="68.433220" cy="40.510674" r="0.3" fill="rgb(0, 255, 0)" />
<circle cx="58.051346" cy="39.985226" r="0.3" fill="rgb(0, 255, 0)" />
<circle cx="65.570724" cy="41.031750" r="0.3" fill="rgb(0, 255, 0)" />
<circle cx="64.754524" cy="41.304523" r="0.3" fill="rgb(0, 255, 0)" />
<circle cx="36.438412" cy="41.022587" r="0.3" fill="rgb(0, 255, 0)" />
<circle cx="66.754433" cy="39.511471" r="0.3" fill="rgb(0, 255, 0)" />
<circle cx="51.257141" cy="40.034573" r="0.3" fill="rgb(0, 255, 0)" />
<circle cx="69.299255" cy="40.705921" r="0.3" fill="rgb(0, 255, 0)" />
<circle cx="43.991329" cy="40.950470" r="0.3" fill="rgb(0, 255, 0)" />
<circle cx="39.917931" cy="40.232929" r="0.3" fill="rgb(0, 255, 0)" />
<circle cx="63.812996" cy="41.178207" r="0.3" fill="rgb(0, 255, 0)" />
<circle cx="38.965454" cy="40.082890" r="0.3" fill="rgb(0, 255, 0)" />
<circle cx="61.813778" cy="39.627529" r="0.3" fill="rgb(0, 255, 0)" />
<circle cx="46.530853" cy="40.367004" r="0.3" fill="rgb(0, 255, 0)" />
<circle cx="53.029129" cy="40.504936" r="0.3" fill="rgb(0, 255, 0)" />
<circle cx="89.200722" cy="40.706333" r="0.3" fill="rgb(0, 255, 0)" />
<circle cx="69.817505" cy="41.458931" r="0.3" fill="rgb(0, 255, 0)" />
<circle cx="55.435532" cy="40.468185" r="0.3" fill="rgb(0, 255, 0)" />
<circle cx="89.368942" cy="40.066425" r="0.3" fill="rgb(0, 255, 0)" />
<circle cx="52.501572" cy="41.399021" r="0.3" fill="rgb(0, 255, 0)" />
<circle cx="12.500000" cy="40.500000" r="0.5" fill="rgb(255,165,0)" />
<circle cx="89.500000" cy="40.500000" r="0.5" fill="rgb(0, 255, 0)" />
</g></svg>