<svg xmlns="http://www.w3.org/2000/svg" version="1.1">
<g transform="scale(4)">

<line x1="5.000000" y1="5.000000" x2="40.000000" y2="5.000000" stroke="white" stroke-width="1.5" stroke-linecap="square" />
<line x1="5.000000" y1="5.000000" x2="5.000000" y2="35.000000" stroke="white" stroke-width="1.5" stroke-linecap="square" />
<line x1="5.000000" y1="35.000000" x2="40.000000" y2="35.000000" stroke="white" stroke-width="1.5" stroke-linecap="square" />
<line x1="40.000000" y1="5.000000" x2="40.000000" y2="18.500000" stroke="white" stroke-width="1.5" stroke-linecap="square" />
<line x1="40.000000" y1="35.000000" x2="40.000000" y2="21.500000" stroke="white" stroke-width="1.5" stroke-linecap="square" />
<line x1="37.000000" y1="20.534937" x2="37.598667" y2="21.036919" stroke="white" stroke-width="1" stroke-linecap="square" />
<line x1="37.598667" y1="21.036919" x2="37.449776" y2="20.259678" stroke="white" stroke-width="1" stroke-linecap="square" />
<line x1="37.449776" y1="20.259678" x2="37.831810" y2="20.000000" stroke="white" stroke-width="1" stroke-linecap="square" />
<line x1="37.831810" y1="20.000000" x2="38.037392" y2="19.401060" stroke="white" stroke-width="1" stroke-linecap="square" />
<line x1="38.037392" y1="19.401060" x2="37.079929" y2="19.861559" stroke="white" stroke-width="1" stroke-linecap="square" />
<line x1="37.079929" y1="19.861559" x2="37.000000" y2="19.902071" stroke="white" stroke-width="1" stroke-linecap="square" />
<line x1="37.000000" y1="19.902071" x2="36.723545" y2="19.521164" stroke="white" stroke-width="1" stroke-linecap="square" />
<line x1="36.723545" y1="19.521164" x2="36.713123" y2="19.834372" stroke="white" stroke-width="1" stroke-linecap="square" />
<line x1="36.713123" y1="19.834372" x2="35.772659" y2="20.000000" stroke="white" stroke-width="1" stroke-linecap="square" />
<line x1="35.772659" y1="20.000000" x2="36.874344" y2="20.072546" stroke="white" stroke-width="1" stroke-linecap="square" />
<line x1="36.874344" y1="20.072546" x2="36.487732" y2="20.887278" stroke="white" stroke-width="1" stroke-linecap="square" />
<line x1="36.487732" y1="20.887278" x2="37.000000" y2="20.534937" stroke="white" stroke-width="1" stroke-linecap="square" />
</g></svg>