<?xml version="1.0" standalone="no"?>
<!DOCTYPE svg PUBLIC "-//W3C//DTD SVG 20010904//EN"
 "http://www.w3.org/TR/2001/REC-SVG-20010904/DTD/svg10.dtd">
<svg version="1.0" xmlns="http://www.w3.org/2000/svg"
 width="140.000000pt" height="184.000000pt" viewBox="0 0 140.000000 184.000000"
 preserveAspectRatio="xMidYMid meet">
<metadata>
Created by potrace 1.12, written by Peter Selinger 2001-2015
</metadata>
<g transform="translate(0.000000,184.000000) scale(0.100000,-0.100000)"
fill="#000000" stroke="none">
<path d="M1142 1528 c3 -305 3 -313 23 -313 20 0 20 8 23 313 l2 312 -25 0
-25 0 2 -312z"/>
<path d="M470 1225 c0 -32 -2 -35 -30 -35 -28 0 -30 -3 -30 -35 l0 -35 65 0
65 0 0 -55 0 -55 -60 0 -60 0 0 -40 c0 -38 2 -40 30 -40 30 0 30 -1 30 -55 0
-54 -1 -55 -29 -55 -25 0 -29 -4 -33 -35 -4 -35 -4 -35 34 -35 37 0 46 11 39
53 0 4 12 7 29 7 l30 0 0 60 0 60 55 0 c54 0 55 0 55 -30 0 -28 3 -30 36 -30
31 0 35 -3 32 -22 -3 -21 -9 -23 -65 -26 l-63 -3 0 -34 0 -35 70 0 70 0 0 30
c0 25 4 30 25 30 21 0 25 -5 25 -30 l0 -30 64 0 65 0 3 33 c2 17 2 62 0 100
l-4 67 -33 0 -34 0 -3 -62 c-3 -57 -5 -63 -25 -66 -22 -3 -23 0 -23 64 l0 67
-60 -6 -60 -7 0 30 c0 27 3 30 30 30 27 0 30 3 30 30 0 27 3 30 30 30 27 0 30
3 30 30 0 25 4 30 25 30 24 0 25 -3 25 -60 l0 -60 34 0 c31 0 34 3 37 33 2 17
3 47 1 65 -3 28 -7 32 -33 32 -29 0 -29 0 -29 58 0 32 -2 61 -5 64 -3 2 -18 3
-35 0 -25 -4 -30 -9 -30 -33 0 -26 -3 -29 -35 -29 l-35 0 0 -60 c0 -53 -2 -60
-20 -60 -16 0 -20 7 -20 30 l0 30 -65 0 c-63 0 -65 1 -65 25 0 21 5 25 30 25
28 0 30 2 30 40 l0 40 -70 0 -70 0 0 -35z"/>
<path d="M1137 794 c-4 -4 -7 -184 -7 -401 l0 -393 25 0 25 0 -2 397 c-3 350
-5 398 -18 401 -9 1 -19 0 -23 -4z"/>
</g>
</svg>
